<?xml version="1.0" encoding="ISO-8859-1" standalone="yes"?>
<svg width="241.81" height="243.433">
  <defs> 
    <marker id="ArrowEnd" viewBox="0 0 10 10" refX="0" refY="5" 
     markerUnits="strokeWidth" 
     markerWidth="4" 
     markerHeight="3" 
     orient="auto"> 
        <path d="M 0 0 L 10 5 L 0 10 z" /> 
    </marker>
    <marker id="ArrowStart" viewBox="0 0 10 10" refX="10" refY="5" 
     markerUnits="strokeWidth" 
     markerWidth="4" 
     markerHeight="3" 
     orient="auto"> 
        <path d="M 10 0 L 0 5 L 10 10 z" /> 
    </marker> </defs>
<g>
<path style="stroke:#000000; stroke-width:0.90000000000000002; fill:none" d="M 76.7168 94.7167L 67.7168 94.7167L 54.2168 112.717L 49.7168 148.717L 94.7168 148.717L 90.2168 112.717L 76.7168 94.7167"/>
<path style="stroke:#000000; stroke-width:0.90000000000000002; fill:none" d="M 22.7168 193.717L 121.717 193.717L 121.717 238.717L 22.7168 238.717L 22.7168 193.717z"/>
<path style="stroke:#000000; stroke-width:0.90000000000000002; fill:none" d="M 94.7168 193.717L 94.7168 166.717L 130.717 166.717L 130.717 121.717L 94.7168 76.7167L 94.7168 31.7167L 121.717 31.7167L 121.717 4.71674L 22.7168 4.71674L 22.7168 31.7167L 49.7168 31.7167L 49.7168 76.7167L 13.7168 121.717L 13.7168 166.717L 49.7168 166.717L 49.7168 193.717"/>
<path style="stroke:#000000; stroke-width:0.90000000000000002; fill:none" d="M 112.717 45.2167L 139.717 45.2167L 139.717 76.7167L 112.717 76.7167L 112.717 45.2167z"/>
<path style="stroke:#000000; stroke-width:0.90000000000000002; fill:none" d="M 4.71676 45.2167L 31.7168 45.2167L 31.7168 76.7167L 4.71676 76.7167L 4.71676 45.2167z"/>
<path style="stroke:#000000; stroke-width:0.90000000000000002; fill:none" d="M 22.7168 193.717L 22.7168 229.717L 4.71676 229.717L 4.71676 175.717L 40.7168 175.717L 40.7168 193.717"/>
<path style="stroke:#000000; stroke-width:0.90000000000000002; fill:none" d="M 103.717 193.717L 103.717 175.717L 139.717 175.717L 139.717 229.717L 121.717 229.717L 121.717 193.717"/>
<path style="stroke:#000000; stroke-width:0.90000000000000002; fill:none" d="M 139.717 225.217L 9.21676 22.7167"/>
<path style="stroke:#000000; stroke-width:1; fill:none" d="M 236.57 214.941L 219.332 18.8612"/>
</g>
</svg>