<?xml version="1.0" encoding="ISO-8859-1" standalone="yes"?>
<svg width="449.16" height="498.674">
  <defs> 
    <marker id="ArrowEnd" viewBox="0 0 10 10" refX="0" refY="5" 
     markerUnits="strokeWidth" 
     markerWidth="4" 
     markerHeight="3" 
     orient="auto"> 
        <path d="M 0 0 L 10 5 L 0 10 z" /> 
    </marker>
    <marker id="ArrowStart" viewBox="0 0 10 10" refX="10" refY="5" 
     markerUnits="strokeWidth" 
     markerWidth="4" 
     markerHeight="3" 
     orient="auto"> 
        <path d="M 10 0 L 0 5 L 10 10 z" /> 
    </marker> </defs>
<g>
<path style="stroke:#000000; stroke-width:1.0; fill:#ffffff; font-family:Times; font-size:12.0" d="M 119.663 242.507L 116.673 294.716L 120.707 300.894L 260.936 350.165L 262.416 352.462L 262.332 362.554L 251.572 388.171L 247.806 390.718L 213.257 387.198L 201.281 392.692L 187.121 407.268L 182.241 419.529L 182.833 428.508L 186.256 435.76L 207.884 455.074L 208.778 473.697L 214.656 483.289L 223.524 489.279L 274.742 493.433L 288.709 489.726L 299.006 480.482L 303.442 468.564L 292.94 427.144L 327.362 398.244L 333.278 388.305L 334.53 378.459L 319.091 348.795L 360.159 335.785L 367.595 330.359L 386.491 295.025L 419.309 287.867L 430.409 281.252L 437.393 272.227L 439.438 264.297L 437.579 253.289L 430.669 242.9L 385.835 215.287L 404.534 186.422L 405.811 177.043L 399.112 146.752L 401.591 143.858L 433.38 133.487L 439.48 128.092L 443.919 117.978L 442.468 102.769L 436.3 90.0048L 429.843 85.0448L 416.78 83.4388L 352.809 106.451L 346.78 101.189L 348.03 77.4388L 346.28 50.9388L 339.007 38.8499L 325.03 31.1888L 309.444 29.5898L 296.28 34.6888L 285.055 48.2908L 279.53 105.439L 284.53 127.189L 310.53 159.689L 330.495 195.334L 335.421 237.908L 319.476 289.521L 312.915 296.13L 301.227 298.888L 279.039 294.06L 256.418 279.843L 246.557 267.714L 240.903 238.032L 242.905 226.329L 245.823 221.874L 250.323 220.624L 253.557 221.913L 260.813 266.2L 268.893 275.798L 281.28 280.189L 294.411 277.474L 311.124 265.16L 323.362 242.514L 325.35 215.959L 311.004 185.711L 277.236 151.49L 269.181 149.243L 256.228 150.554L 192.235 194.278L 184.117 211.007L 189.904 268.839L 185.892 269.696L 182.213 267.313L 170.546 186.11L 177.388 172.003L 192.995 158.365L 243.194 142.788L 251.307 132.07L 258.145 104.35L 251.724 64.8979L 238.724 35.1479L 224.774 15.5209L 207.974 6.89789L 190.98 5.24084L 179.974 11.6458L 173.974 21.6458L 171.474 37.6458L 178.224 54.6458L 191.724 69.3958L 192.224 73.8958L 150.224 125.646L 109.427 165.609L 101.438 173.435L 89.6688 184.964L 50.3428 192.782L 31.6808 207.393L 20.7248 228.278L 22.7368 278.548L 6.39784 313.257L 5.24084 325.943L 9.38284 340.138L 17.6458 349.693L 28.7398 354.324L 70.7318 356.115L 72.7338 358.447L 76.7918 424.793L 85.2968 437.418L 100.841 444.581L 121.383 443.388L 161.36 418.263L 185.61 395.013L 201.86 369.763L 203.61 359.763L 199.61 349.513L 191.974 345.896L 125.537 349.177L 121.533 307.587L 116.466 298.939L 109.794 293.875L 100.223 291.51L 83.7429 294.61L 80.3909 256.161L 84.4109 245.432L 91.5919 240.889L 117.997 240.936"/>
<path style="stroke:#000000; stroke-width:1.0; fill:#ffffff; font-family:Times; font-size:12.0" d="M 309.759 381.167L 271.8 414.776L 269.079 422.208L 268.966 429.124L 279.779 462.937L 276.519 468.458L 232.05 467.315L 229.52 465.301L 228.314 445.826L 203.973 421.422L 212.553 411.065L 217.212 408.626L 247.511 412.616L 259.799 409.028L 271.694 396.864L 284.778 359.284L 283.293 344.507L 277.9 334.784L 267.043 326.452L 136.63 283.296L 141.637 239.913L 138.45 229.433L 130.922 221.119L 119.091 216.992L 81.0739 218.734L 69.2829 225.857L 58.8329 241.966L 59.0699 294.847L 63.1479 305.699L 70.0999 313.269L 78.5039 316.492L 98.3419 313.437L 99.0199 314.843L 105.041 361.136L 110.567 367.23L 119.246 370.599L 178.8 366.697L 175.184 375.136L 151.86 398.513L 119.748 418.482L 107.414 421.074L 100.817 419.969L 98.5509 418.033L 93.3299 349.978L 89.0059 341.55L 81.3039 335.128L 34.4689 331.233L 28.8559 328.764L 27.1509 323.192L 27.7089 317.587L 44.5369 280.144L 41.9209 233.226L 48.5849 220.755L 60.0539 212.118L 82.4759 210.448L 106.232 199.764L 115.616 190.488L 124.648 181.561L 168.78 137.938L 209.976 86.8958L 215.45 70.2538L 210.726 58.6458L 200.098 49.1169L 190.476 35.8958L 190.726 28.8958L 196.226 24.3958L 203.226 27.1458L 220.476 48.6458L 232.505 78.4709L 233.017 110.7L 229.891 120.264L 226.134 125.146L 187.821 133.601L 162.002 152.183L 148.541 174.577L 145.884 186.673L 161.026 277.441L 168.71 286.183L 176.936 290.482L 189.275 291.373L 202.217 286.521L 207.591 281.056L 212.165 269.673L 205.506 215.038L 210.353 205.95L 260.974 171.145L 269.474 172.145L 286.474 190.145L 301.266 217.756L 301.529 233.051L 298.61 244.012L 291.11 252.262L 282.61 256.012L 279.524 253.416L 271.65 207.742L 263.935 200.213L 250.388 196.443L 236.347 199.125L 226.751 206.404L 217.104 230.648L 222.407 271.207L 234.746 290.699L 259.608 309.668L 289.021 319.955L 317.791 317.689L 332.575 307.625L 355.703 247.961L 351.027 187.938L 324.777 142.938L 300.527 110.938L 300.027 84.1879L 303.831 58.7149L 312.159 51.2009L 321.027 51.9379L 327.777 59.4379L 325.631 104.789L 330.151 116.187L 336.446 122.789L 345.822 127.657L 356.99 127.969L 414.473 105.645L 420.973 107.145L 420.973 114.145L 410.473 120.145L 389.973 125.145L 377.163 135.847L 374.749 151.532L 381.655 176.783L 381.491 178.512L 363.914 204.508L 361.636 216.488L 363.641 223.756L 371.514 233.195L 414.203 259.113L 413.806 263.33L 377.405 272.012L 365.858 280.907L 349.861 313.47L 301.042 332.187L 296.673 338.39L 294.896 344.361L 295.937 354.47L 310.46 379.29L 309.759 381.167L 309.759 381.167L 309.759 381.167L 309.759 381.167z"/>
<path style="stroke:#00ff00; stroke-width:1.0; fill:#ffffff; font-family:Times; font-size:12.0" d="M 109.427 165.609L 124.648 181.561L 115.616 190.488L 101.438 173.435L 109.427 165.609"/>
<path style="stroke:#ff0000; stroke-width:1.0; fill:none; font-family:Times; font-size:12.0" d="M 101.438 173.435L 115.616 190.488L 106.232 199.764L 89.6688 184.964L 101.438 173.435"/>
<path style="stroke:#000000; stroke-width:1.0; fill:none; font-family:Times; font-size:12.0" d="M 141.768 147.23L 138.312 150.327"/>
</g>
</svg>