<?xml version="1.0" encoding="ISO-8859-1" standalone="yes"?>
<svg width="441.777" height="345.62">
  <defs> 
    <marker id="ArrowEnd" viewBox="0 0 10 10" refX="0" refY="5" 
     markerUnits="strokeWidth" 
     markerWidth="4" 
     markerHeight="3" 
     orient="auto"> 
        <path d="M 0 0 L 10 5 L 0 10 z" /> 
    </marker>
    <marker id="ArrowStart" viewBox="0 0 10 10" refX="10" refY="5" 
     markerUnits="strokeWidth" 
     markerWidth="4" 
     markerHeight="3" 
     orient="auto"> 
        <path d="M 10 0 L 0 5 L 10 10 z" /> 
    </marker> </defs>
<g>
<path style="stroke:#000000; stroke-width:1.0; fill:none; font-family:Times; font-size:12.0" d="M 56.9108 14.2429L 49.1848 21.7639L 44.1598 31.0999L 42.0638 41.6108L 43.1268 52.6569L 47.4618 63.3649L 54.4758 71.9778L 63.7268 78.0948L 74.7708 81.3129L 111.892 81.8239L 110.434 113.743L 86.5578 105.26L 65.0518 101.239L 46.2258 101.749L 30.3868 106.86L 20.3628 113.997L 12.7718 123.603L 7.70084 135.531L 5.24084 149.626L 6.66584 163.958L 12.6298 177.597L 22.4708 189.472L 35.5238 198.513L 50.0948 203.375L 64.8018 203.58L 79.1458 199.2L 92.6248 190.306L 103.201 178.974L 111.44 165.776L 117.61 151.235L 121.982 135.874L 135.991 143.697L 137.554 158.04L 141.405 170.554L 147.55 181.203L 161.459 195.811L 164.792 202.457L 166.455 209.756L 165.622 245.654L 142.578 260.894L 130.751 271.501L 123.755 281.671L 121.532 292.855L 125.409 304.08L 134.439 312.924L 149.037 320.92L 182.076 331.858L 195.07 333.985L 207.526 332.829L 218.448 326.522L 223.017 320.655L 226.282 313.122L 228.241 303.87L 228.81 288.62L 227.618 274.599L 235.904 269.947L 243.064 266.908L 249.462 265.91L 266.108 270.217L 276.856 269.262L 312.768 254.869L 308.366 266.586L 294.789 292.82L 291.943 301.277L 290.836 309.857L 292.061 317.992L 294.57 323.498L 298.407 328.412L 303.555 332.721L 316.862 339.1L 323.162 340.379L 328.943 340.25L 334.249 338.713L 340.982 333.99L 345.733 327.342L 355.431 300.977L 369.519 279.252L 373.529 269.924L 375.123 260.397L 374.747 256.174L 373.548 252.031L 370.084 246.301L 364.753 241.668L 357.577 238.148L 345.721 235.298L 337.365 234.726L 347.95 216.667L 362.71 199.272L 382.642 184.26L 419.007 169.266L 427.195 163.482L 432.998 156.289L 436.105 147.976L 436.536 143.303L 435.773 136.938L 432.937 129.492L 427.201 121.286L 391.832 92.5258L 378.681 87.1098L 366.131 88.0489L 360.674 91.8499L 356.696 97.7879L 354.209 105.838L 353.021 116.749L 350.333 122.387L 313.161 164.392L 289.534 184.802L 283.829 187.154L 279.123 187.025L 264.901 182.619L 254.251 182.385L 241.147 186.45L 224.352 196.535L 211.832 206.922L 200.564 173.053L 212.351 174.603L 223.544 174.051L 241.696 167.867L 258.241 155.698L 273.939 138.313L 293.218 110.069L 295.431 104.029L 296.199 98.3219L 295.532 92.9069L 291.185 84.4709L 283.339 77.2679L 203.984 31.8349L 195.172 29.2618L 186.333 29.7399L 180.662 32.0529L 175.456 35.9988L 170.628 41.6638L 166.088 49.1319L 162.727 56.6219L 160.423 64.2498L 159.099 72.0518L 158.675 80.0598L 159.976 95.3759L 175.617 148.235L 151.079 135.127L 154.122 104.788L 153.612 96.5659L 152.076 89.4189L 149.505 83.2829L 145.888 78.0938L 141.748 74.2408L 137.058 71.3669L 131.903 69.3308L 126.369 67.9939L 125.608 58.5688L 122.977 45.4019L 117.193 30.8308L 108.033 17.4899L 95.2748 8.01285L 88.1708 5.72284L 79.3048 5.24084L 68.8338 7.70184L 56.9108 14.2429L 56.9108 14.2429z"/>
<path style="stroke:#000000; stroke-width:1.0; fill:none; font-family:Times; font-size:12.0" d="M 76.8318 66.4568L 69.3038 64.1139L 63.6808 59.9438L 59.8498 54.6879L 57.6958 49.0898L 57.0208 43.4478L 57.8398 37.4069L 60.5648 31.5518L 65.6038 26.4679L 72.0738 22.5978L 78.1118 20.5118L 83.7578 20.2029L 89.0528 21.6619L 97.6548 28.4209L 104.215 38.5159L 108.6 49.7748L 110.677 60.0248L 111.241 66.8228L 76.8318 66.4568L 76.8318 66.4568z"/>
<path style="stroke:#000000; stroke-width:1.0; fill:none; font-family:Times; font-size:12.0" d="M 42.2668 185.114L 32.9758 178.668L 25.8018 170.168L 21.3438 160.547L 20.1998 150.739L 21.9028 140.411L 25.3348 131.854L 30.4808 125.094L 37.3268 120.158L 50.6198 116.235L 67.1068 116.473L 86.3848 120.778L 108.053 129.053L 104.405 143.308L 99.1538 156.758L 92.0438 168.831L 82.8178 178.954L 70.4568 186.637L 59.1588 189L 49.5518 187.88L 42.2668 185.114L 42.2668 185.114z"/>
<path style="stroke:#000000; stroke-width:1.0; fill:none; font-family:Times; font-size:12.0" d="M 126.968 83.5219L 131.264 85.2999L 134.597 87.9689L 137.981 94.7868L 138.828 99.4308L 139.024 108.247L 136.763 126.824L 124.805 120.438L 126.39 99.4619L 126.968 83.5219L 126.968 83.5219z"/>
<path style="stroke:#000000; stroke-width:1.0; fill:none; font-family:Times; font-size:12.0" d="M 181.212 232.011L 181.89 217.761L 181.246 207.343L 178.803 197.029L 173.792 187.217L 160.499 173.381L 156.572 167.474L 153.669 160.593L 151.791 152.746L 182.678 167.611L 199.479 218L 181.085 233.908L 181.212 232.011L 181.212 232.011z"/>
<path style="stroke:#000000; stroke-width:1.0; fill:none; font-family:Times; font-size:12.0" d="M 192.781 151.526L 175.148 95.2979L 173.684 80.2618L 174.013 73.8889L 175.034 67.7609L 176.798 61.8488L 179.357 56.1238L 182.102 51.4469L 184.807 47.9048L 187.464 45.5089L 190.062 44.2679L 194.73 44.4509L 200.42 46.7169L 271.553 87.3849L 277.931 92.1649L 281.017 96.6999L 281.155 98.9019L 280.539 101.555L 279.173 104.65L 261.247 130.147L 247.234 145.471L 234.188 154.909L 221.278 159.222L 215.104 159.68L 208.579 159.252L 194.39 155.927L 192.781 151.526L 192.781 151.526z"/>
<path style="stroke:#000000; stroke-width:1.0; fill:none; font-family:Times; font-size:12.0" d="M 173.927 313.962L 154.888 307.11L 143.61 301.053L 138.134 296.039L 136.5 292.32L 136.462 291.679L 137.44 287.839L 141.62 281.796L 150.873 273.417L 168.272 261.8L 170.817 267.032L 177.205 275.725L 184.164 281.756L 191.747 285.156L 200.003 285.961L 203.432 285.565L 210.121 283.721L 213.391 282.383L 213.907 293.041L 213.378 302.068L 212.006 308.588L 210.112 313.01L 208.019 315.737L 201.556 318.735L 193.008 318.686L 173.927 313.962L 173.927 313.962z"/>
<path style="stroke:#000000; stroke-width:1.0; fill:none; font-family:Times; font-size:12.0" d="M 204.001 234.056L 211.289 266.693L 203.026 270.318L 196.133 270.793L 189.903 267.352L 183.625 259.227L 182.216 256.225L 181.303 252.825L 204.001 234.056L 204.001 234.056z"/>
<path style="stroke:#000000; stroke-width:1.0; fill:none; font-family:Times; font-size:12.0" d="M 307.124 190.305L 356.055 140.279L 363.792 129.125L 367.328 121.461L 369.631 105.746L 370.863 103.024L 372.17 101.78L 375.204 101.574L 380.997 103.681L 390.423 109.622L 414.239 129.374L 418.262 134.12L 420.716 138.764L 421.547 143.214L 421.364 145.194L 419.58 149.458L 416.052 153.293L 411.012 156.507L 372.067 173.12L 348.062 192.803L 331.153 215.052L 319.808 236.958L 274.811 254.315L 267.926 255.26L 252.109 251.057L 242.596 251.598L 233.553 254.491L 225.086 258.723L 216.482 222.883L 233.093 208.723L 246.439 200.53L 255.989 197.354L 263.062 197.542L 277.025 201.903L 285.497 202.137L 295.245 198.74L 307.124 190.305L 307.124 190.305z"/>
<path style="stroke:#000000; stroke-width:1.0; fill:none; font-family:Times; font-size:12.0" d="M 345.864 250.505L 349.628 251.355L 353.749 252.755L 357.37 254.812L 359.634 257.626L 359.563 264.237L 356.186 272.272L 342.311 293.668L 333.54 318.16L 331.125 322.451L 328.207 324.98L 325.561 325.474L 322.516 325.083L 312.659 320.77L 309.729 318.52L 307.635 316.084L 306.361 313.447L 305.825 309.738L 306.73 303.869L 330.565 250.154L 338.076 249.732L 345.864 250.505L 345.864 250.505z"/>
<path style="stroke:#ff00ff; stroke-width:1.0; fill:none; font-family:Times; font-size:12" d="M 12.6298 177.597L 25.8018 170.168L 12.6298 177.597L 12.6298 177.597z"/>
<path style="stroke:#0000ff; stroke-width:1.0; fill:none; font-family:Times; font-size:12" d="M 342.311 293.668L 355.431 300.977L 342.311 293.668"/>
<path style="stroke:#00ffff; stroke-width:1.0; fill:none; font-family:Times; font-size:12" d="M 44.1598 31.0999L 57.8398 37.4069L 44.1598 31.0999"/>
<path style="stroke:#ffff00; stroke-width:1.0; fill:none; font-family:Times; font-size:12" d="M 277.931 92.1649L 290.342 83.1934L 277.931 92.1649"/>
<path style="stroke:#ff0000; stroke-width:1.0; fill:none; font-family:Times; font-size:12" d="M 201.556 318.735L 207.526 332.829L 201.556 318.735"/>
<path style="stroke:#00ff00; stroke-width:1.0; fill:none; font-family:Times; font-size:12" d="M 378.681 87.1098L 375.204 101.574L 378.681 87.1098"/>
<path style="stroke:#ff0000; stroke-width:1.0; fill:none; font-family:Times; font-size:12" d="M 170.633 102.852L 169.825 99.0809"/>
</g>
</svg>
