<?xml version="1.0" encoding="ISO-8859-1" standalone="yes"?>
<svg width="436.333" height="444.814">
  <defs> 
    <marker id="ArrowEnd" viewBox="0 0 10 10" refX="0" refY="5" 
     markerUnits="strokeWidth" 
     markerWidth="4" 
     markerHeight="3" 
     orient="auto"> 
        <path d="M 0 0 L 10 5 L 0 10 z" /> 
    </marker>
    <marker id="ArrowStart" viewBox="0 0 10 10" refX="10" refY="5" 
     markerUnits="strokeWidth" 
     markerWidth="4" 
     markerHeight="3" 
     orient="auto"> 
        <path d="M 10 0 L 0 5 L 10 10 z" /> 
    </marker> </defs>
<g>
<path style="stroke:#000000; stroke-width:1.0; fill:none; font-family:Times; font-size:12.0" d="M 39.9378 11.7758L 33.0758 17.6259L 23.3738 29.8488L 17.3328 40.2528L 11.8248 52.0119L 7.26984 64.9149L 5.81984 71.5789L 5.24084 78.1539L 5.77384 84.4669L 7.65884 90.3429L 11.1378 95.6089L 16.9658 100.306L 24.4738 103.242L 33.6588 104.532L 44.5178 104.289L 57.0488 102.628L 104.644 90.2738L 107.074 113.167L 105.717 127.554L 101.717 138.408L 99.0779 141.856L 96.1609 144.225L 93.0759 145.695L 86.8438 146.658L 62.9828 145.453L 54.5748 145.838L 41.5578 148.503L 33.1778 153.782L 29.6908 159.36L 28.7238 163.32L 29.1078 169.811L 32.7718 179.214L 39.2288 189.265L 65.1878 221.895L 72.7248 233.138L 77.3228 243.413L 77.7018 250.306L 76.2328 253.422L 65.4828 260.443L 51.2138 264.549L 44.4408 267.443L 38.8198 271.447L 34.3708 276.541L 31.5908 281.575L 29.0378 290.65L 28.7058 303.264L 30.2368 314.024L 38.8858 343.246L 32.6198 359.122L 26.7198 385.092L 26.3388 399.479L 27.8098 413.859L 31.5778 424.027L 37.9088 432.45L 46.1708 437.71L 55.9978 439.573L 64.5168 438.474L 72.4619 434.698L 77.0529 429.032L 79.2589 422.904L 79.9169 415.516L 78.4169 402.204L 75.0388 390.621L 57.3848 344.169L 66.6968 328.47L 78.4928 313.449L 85.3558 306.38L 92.8788 299.703L 101.075 293.495L 109.959 287.829L 122.893 280.92L 135.265 275.444L 147.013 271.254L 158.076 268.201L 168.392 266.14L 186.54 264.404L 194.249 264.434L 199.547 280.932L 206.068 293.514L 214.535 305.614L 223.693 312.751L 229.785 315.089L 234.182 315.784L 239.228 315.586L 244.733 314.061L 250.508 310.774L 256.363 305.292L 263.265 294.891L 264.577 290.104L 264.598 285.291L 263.472 280.566L 257.918 271.256L 242.279 259.159L 230.246 253.866L 216.112 249.964L 208.332 248.633L 206.954 237.412L 206.402 224.252L 207.038 210.225L 209.258 194.866L 213.53 178.601L 220.322 161.855L 225.195 153.51L 231.501 145.494L 239.18 137.85L 248.173 130.62L 258.424 123.846L 269.873 117.57L 296.136 106.682L 329.751 97.7199L 363.52 93.1529L 373.327 106.056L 383.035 116.607L 392.976 123.841L 403.487 126.79L 414.452 124.408L 423.444 117.765L 428.194 110.64L 431.092 103L 430.444 95.0149L 426.569 88.6399L 421.978 84.6839L 412.944 80.3899L 402.531 77.6489L 387.471 75.9049L 371.887 75.6539L 351.593 48.7989L 344.197 40.6029L 336.412 33.2659L 328.193 27.0769L 319.495 22.3259L 310.275 19.3019L 296.546 19.1949L 280.786 23.5969L 263.789 31.4719L 229.263 53.4939L 170.716 102.573L 162.882 88.3649L 152.898 76.9819L 141.679 69.8279L 135.944 67.7659L 129.497 67.0059L 116.623 68.6219L 112.812 57.9579L 108.328 47.7439L 103.222 38.1759L 97.5479 29.4489L 84.7079 15.3019L 77.6489 10.2729L 70.2339 6.86694L 62.4788 5.24084L 54.7738 5.52985L 47.2248 7.71384L 39.9378 11.7758L 39.9378 11.7758L 39.9378 11.7758L 39.9378 11.7758L 39.9378 11.7758L 39.9378 11.7758L 39.9378 11.7758z"/>
<path style="stroke:#000000; stroke-width:1.0; fill:none; font-family:Times; font-size:12.0" d="M 23.8478 84.3199L 22.7308 82.0889L 22.3458 76.8839L 26.4688 61.1759L 32.9668 47.0349L 40.3898 35.1119L 49.2578 26.0199L 54.1738 23.2919L 59.3798 22.1809L 64.8508 22.9889L 69.1488 24.9729L 77.8119 32.0959L 86.1869 42.9359L 93.8178 56.9049L 100.342 73.7939L 72.2768 81.8859L 51.0738 86.3909L 38.5388 87.6269L 25.8978 85.7888L 23.8478 84.3199L 23.8478 84.3199L 23.8478 84.3199L 23.8478 84.3199L 23.8478 84.3199L 23.8478 84.3199L 23.8478 84.3199z"/>
<path style="stroke:#000000; stroke-width:1.0; fill:none; font-family:Times; font-size:12.0" d="M 199.301 99.4159L 237.11 68.7569L 268.148 48.4639L 280.875 41.9649L 291.604 37.7709L 300.235 35.7849L 306.666 35.9119L 312.77 37.9329L 318.752 41.1979L 324.612 45.5309L 330.346 50.7569L 341.424 63.1789L 351.964 77.0539L 330.843 80.1289L 309.094 84.9859L 287.425 91.6769L 266.544 100.252L 247.157 110.762L 229.972 123.258L 215.697 137.791L 205.039 154.412L 197.412 173.206L 192.616 191.433L 190.124 208.62L 189.534 230.817L 190.978 247.403L 170.53 248.701L 148.571 253.132L 125.424 261.131L 101.413 273.136L 86.6198 283.026L 73.0198 294.729L 60.7688 308.065L 50.0218 322.851L 46.7198 309.685L 45.4658 298.129L 45.9818 292.276L 48.1598 286.512L 52.3158 282.537L 82.0038 270.998L 89.2168 264.47L 93.5698 256.573L 95.0078 247.808L 92.4228 234.8L 85.6348 221.509L 49.9838 174.965L 46.2978 168.12L 45.9438 165.641L 47.4568 164.373L 57.6738 162.613L 72.1238 162.676L 82.3198 163.44L 89.7818 163.534L 96.6298 162.375L 102.819 159.997L 108.306 156.436L 113.047 151.728L 116.997 145.907L 120.113 139.01L 122.351 131.072L 123.646 122.431L 124.068 113.147L 123.271 99.3609L 120.966 85.0659L 128.551 84.0579L 135.749 85.8829L 142.535 90.5359L 150.125 99.8959L 157.547 115.424L 116.004 162.283L 101.005 184.179L 95.6608 194.157L 92.0238 203.264L 90.0638 214.706L 91.3608 222.47L 94.5188 227.912L 98.4418 231.411L 102.03 233.347L 114.452 237.507L 125.471 239.259L 135.138 239.013L 143.509 237.179L 150.636 234.165L 156.573 230.383L 165.086 222.15L 172.909 209.658L 178.334 194.949L 182.262 170.159L 182.424 156.216L 180.29 135.231L 176.945 120.128L 199.301 99.4159L 199.301 99.4159L 199.301 99.4159L 199.301 99.4159L 199.301 99.4159L 199.301 99.4159L 199.301 99.4159z"/>
<path style="stroke:#000000; stroke-width:1.0; fill:none; font-family:Times; font-size:12.0" d="M 45.2658 412.996L 42.9948 397.379L 48.0758 367.008L 61.6968 405.918L 63.1218 415.766L 62.5848 419.664L 60.3558 421.973L 55.2168 422.562L 51.6098 421.57L 48.1928 418.634L 45.2658 412.996L 45.2658 412.996L 45.2658 412.996L 45.2658 412.996L 45.2658 412.996L 45.2658 412.996L 45.2658 412.996z"/>
<path style="stroke:#000000; stroke-width:1.0; fill:none; font-family:Times; font-size:12.0" d="M 230.318 297.013L 226.83 293.877L 221.737 287.297L 212.457 266.509L 231.849 272.888L 243.808 281.012L 246.543 284.397L 247.393 286.068L 247.459 288.559L 241.973 295.82L 237.44 298.628L 233.984 298.703L 230.318 297.013L 230.318 297.013L 230.318 297.013L 230.318 297.013L 230.318 297.013L 230.318 297.013L 230.318 297.013z"/>
<path style="stroke:#000000; stroke-width:1.0; fill:none; font-family:Times; font-size:12.0" d="M 404.24 109.805L 399.978 108.369L 395.167 104.732L 389.955 99.3719L 384.489 92.7699L 391.41 93.2509L 402.392 94.9469L 413.051 99.1019L 413.442 101.763L 406.76 109.224L 404.24 109.805L 404.24 109.805L 404.24 109.805L 404.24 109.805L 404.24 109.805L 404.24 109.805L 404.24 109.805z"/>
<path style="stroke:#000000; stroke-width:1.0; fill:none; font-family:Times; font-size:12.0" d="M 108.594 217.659L 107.034 214.383L 108.238 208.368L 110.933 201.579L 114.995 193.862L 126.842 176.088L 162.819 134.277L 164.832 147.902L 165.529 161.725L 164.726 176.062L 163.705 182.932L 162.252 189.507L 160.356 195.716L 158.005 201.487L 155.186 206.749L 151.886 211.429L 147.991 215.485L 142.567 219.263L 135.669 221.914L 128.031 222.351L 121.969 221.726L 115.488 220.163L 108.594 217.659L 108.594 217.659L 108.594 217.659L 108.594 217.659L 108.594 217.659L 108.594 217.659L 108.594 217.659z"/>
<path style="stroke:#0000ff; stroke-width:1.0; fill:none; font-family:Times; font-size:12.0" d="M 424.292 110.743L 422.242 105.793L 417.292 103.743L 412.342 105.793L 410.292 110.743L 412.342 115.693L 417.292 117.743L 422.242 115.693L 424.292 110.743L 424.292 110.743L 424.292 110.743L 424.292 110.743L 424.292 110.743L 424.292 110.743z"/>
<path style="stroke:#00ffff; stroke-width:1.0; fill:none; font-family:Times; font-size:12.0" d="M 131.149 230.649L 129.099 225.699L 124.149 223.649L 119.199 225.699L 117.149 230.649L 119.199 235.599L 124.149 237.649L 129.099 235.599L 131.149 230.649L 131.149 230.649L 131.149 230.649L 131.149 230.649L 131.149 230.649L 131.149 230.649z"/>
<path style="stroke:#7e0000; stroke-width:1.0; fill:none; font-family:Times; font-size:12.0" d="M 256.245 300.624L 254.195 295.674L 249.245 293.624L 244.295 295.674L 242.245 300.624L 244.295 305.573L 249.245 307.624L 254.195 305.573L 256.245 300.624L 256.245 300.624L 256.245 300.624L 256.245 300.624L 256.245 300.624L 256.245 300.624z"/>
<path style="stroke:#ff00ff; stroke-width:1.0; fill:none; font-family:Times; font-size:12.0" d="M 32.8979 42.1999L 30.8477 37.2502L 25.8979 35.1999L 20.9482 37.2502L 18.8979 42.1999L 20.9482 47.1496L 25.8979 49.1999L 30.8477 47.1496L 32.8979 42.1999L 32.8979 42.1999L 32.8979 42.1999L 32.8979 42.1999L 32.8979 42.1999L 32.8979 42.1999z"/>
<path style="stroke:#ffff00; stroke-width:1.0; fill:none; font-family:Times; font-size:12.0" d="M 64.3956 430.909L 62.3453 425.96L 57.3956 423.909L 52.4458 425.96L 50.3956 430.909L 52.4458 435.859L 57.3956 437.909L 62.3453 435.859L 64.3956 430.909L 64.3956 430.909L 64.3956 430.909L 64.3956 430.909L 64.3956 430.909L 64.3956 430.909z"/>
<path style="stroke:#000000; stroke-width:1.0; fill:none; font-family:Times; font-size:12.0" d="M 278.889 103.558L 274.414 105.169"/>
</g>
</svg>