<?xml version="1.0" encoding="ISO-8859-1" standalone="yes"?>
<svg width="332.353" height="495.483">
  <defs> 
    <marker id="ArrowEnd" viewBox="0 0 10 10" refX="0" refY="5" 
     markerUnits="strokeWidth" 
     markerWidth="4" 
     markerHeight="3" 
     orient="auto"> 
        <path d="M 0 0 L 10 5 L 0 10 z" /> 
    </marker>
    <marker id="ArrowStart" viewBox="0 0 10 10" refX="10" refY="5" 
     markerUnits="strokeWidth" 
     markerWidth="4" 
     markerHeight="3" 
     orient="auto"> 
        <path d="M 10 0 L 0 5 L 10 10 z" /> 
    </marker> </defs>
<g>
<path style="stroke:#000000; stroke-width:1.0; fill:none; font-family:Times; font-size:12.0" d="M 242.466 401.241L 248.241 409.741L 241.905 441.045L 224.636 466.637L 199.045 483.906L 167.741 490.242L 136.437 483.906L 110.846 466.637L 93.5768 441.045L 87.2408 409.741L 92.7198 380.548L 107.769 356.111L 130.304 338.509L 158.241 329.821L 158.241 275.241L 5.24084 275.241L 5.24084 130.241L 60.2408 130.241L 60.2408 220.241L 255.112 220.241L 228.112 274.241L 296.37 274.241L 260.87 203.241L 86.2408 203.241L 86.2408 148.241L 158.241 148.241L 158.241 111.379L 140.827 104.949L 126.873 93.2198L 117.603 77.4099L 114.241 58.7408L 118.451 37.9368L 129.928 20.9288L 146.936 9.45184L 167.741 5.24084L 188.546 9.45084L 205.553 20.9279L 217.03 37.9359L 221.241 58.7408L 217.879 77.4099L 208.07 95.1052L 193.578 106.296L 177.241 111.379L 177.241 167.241L 105.241 167.241L 105.241 184.241L 272.612 184.241L 327.112 293.241L 197.37 293.241L 224.37 239.241L 41.2408 239.241L 41.2408 149.241L 24.2408 149.241L 24.2408 256.241L 177.241 256.241L 177.241 344.138L 166.667 348.747L 143.048 351.239L 122.861 364.861L 109.239 385.048L 104.241 409.741L 109.239 434.433L 122.861 454.62L 143.048 468.243L 167.741 473.241L 167.741 473.241L 167.741 473.241L 167.741 473.241L 190.541 469.008L 209.685 457.369L 223.585 439.916L 230.655 418.241L 202.205 418.241L 197.55 428.991L 189.783 437.547L 179.611 443.2L 167.741 445.241L 153.936 442.447L 142.65 434.832L 135.035 423.546L 132.241 409.741L 135.034 395.935L 142.649 384.649L 153.935 377.034L 167.74 374.24L 179.61 376.282L 189.782 381.935L 197.549 390.491L 202.204 401.241L 242.466 401.241L 242.466 401.241L 242.466 401.241L 242.466 401.241z"/>
<path style="stroke:#000000; stroke-width:1.0; fill:none; font-family:Times; font-size:12.0" d="M 131.241 58.7408L 134.114 44.5468L 141.944 32.9428L 153.548 25.1129L 167.742 22.2399L 181.936 25.1129L 193.54 32.9428L 201.37 44.5468L 204.241 58.7408L 201.368 72.9348L 193.538 84.5388L 181.934 92.3688L 167.741 95.2408L 153.547 92.3679L 141.943 84.5379L 134.113 72.9339L 131.241 58.7408L 131.241 58.7408L 131.241 58.7408L 131.241 58.7408L 131.241 58.7408L 131.241 58.7408L 131.241 58.7408z"/>
<path style="stroke:#000000; stroke-width:1.0; fill:none; font-family:Times; font-size:12.0" d="M 186.241 409.741L 184.785 416.935L 180.816 422.816L 174.935 426.785L 167.741 428.241L 160.547 426.785L 154.666 422.816L 150.697 416.935L 149.241 409.741L 150.697 402.547L 154.666 396.666L 160.547 392.697L 167.741 391.241L 174.935 392.697L 180.816 396.666L 184.785 402.547L 186.241 409.741L 186.241 409.741L 186.241 409.741L 186.241 409.741L 186.241 409.741L 186.241 409.741L 186.241 409.741z"/>
<path style="stroke:#00ffff; stroke-width:1.0; fill:none; font-family:Times; font-size:12.0" d="M 147.834 409.905L 145.783 404.955L 140.834 402.905L 135.884 404.955L 133.834 409.905L 135.884 414.855L 140.834 416.905L 145.783 414.855L 147.834 409.905L 147.834 409.905L 147.834 409.905L 147.834 409.905z"/>
<path style="stroke:#0000ff; stroke-width:1.0; fill:none; font-family:Times; font-size:12.0" d="M 174.551 13.8489L 172.501 8.89923L 167.551 6.84894L 162.602 8.89923L 160.551 13.8489L 162.602 18.7987L 167.551 20.849L 172.501 18.7987L 174.551 13.8489L 174.551 13.8489L 174.551 13.8489L 174.551 13.8489z"/>
<path style="stroke:#000000; stroke-width:1.0; fill:none; font-family:Times; font-size:12.0" d="M 209.767 47.3799L 211.019 51.9887"/>
</g>
</svg>