<?xml version="1.0" encoding="ISO-8859-1" standalone="yes"?>
<svg width="334.534" height="309.46">
  <defs> 
    <marker id="ArrowEnd" viewBox="0 0 10 10" refX="0" refY="5" 
     markerUnits="strokeWidth" 
     markerWidth="4" 
     markerHeight="3" 
     orient="auto"> 
        <path d="M 0 0 L 10 5 L 0 10 z" /> 
    </marker>
    <marker id="ArrowStart" viewBox="0 0 10 10" refX="10" refY="5" 
     markerUnits="strokeWidth" 
     markerWidth="4" 
     markerHeight="3" 
     orient="auto"> 
        <path d="M 10 0 L 0 5 L 10 10 z" /> 
    </marker> </defs>
<g>
<path style="stroke:#000000; stroke-width:1.0; fill:none; font-family:Times; font-size:12.0" d="M 88.3335 19.0743L 83.7619 27.1429L 80.4659 40.4529L 80.8559 54.7499L 85.0539 68.8749L 92.4109 80.6499L 102.327 89.3619L 114.422 94.7669L 121.169 96.1539L 160.41 96.9709L 167.807 98.4906L 174.466 101.424L 180.49 106.262L 183.461 109.939L 184.873 114.536L 185.057 118.252L 183.388 121.292L 180.324 123.092L 175.376 123.819L 168.495 123.023L 149.3 116.73L 140.105 114.671L 131.907 113.858L 124.567 114.071L 117.949 115.091L 87.4999 125.403L 79.9996 126.299L 71.6008 125.173L 64.9948 123.341L 52.3788 118.543L 47.3668 117.501L 37.6998 117.796L 28.7738 121.212L 20.9098 127.684L 14.9348 136.138L 12.4308 141.178L 8.47384 152.639L 6.03184 165.614L 5.24084 179.409L 6.10384 192.731L 8.52984 205.16L 12.4358 216.268L 18.4238 226.563L 26.7818 234.867L 36.6548 239.787L 47.7028 241.153L 53.5618 240.452L 64.4558 237.655L 120.985 214.695L 125.496 213.355L 130.164 213.627L 133.863 215.665L 135.583 219.163L 136.538 225.207L 136.754 240.436L 133.697 265.559L 133.087 271.169L 133.992 281.437L 137.626 290.183L 143.865 297.11L 147.922 299.797L 154.235 302.454L 168.6 304.219L 183.873 301.503L 198.358 294.606L 209.763 284.56L 216.704 273.128L 219.526 260.482L 219.362 253.839L 218.132 247.054L 211.618 227.634L 209.805 216.608L 210.002 206.934L 211.829 198.441L 214.905 190.957L 218.85 184.311L 234.541 164.389L 236.309 161.608L 240.344 153.796L 243.379 146.325L 247.024 132.536L 249.101 100.389L 250.376 98.0318L 253.026 96.5715L 257.269 96.1008L 290.309 95.4168L 297.139 93.6188L 303.543 90.8898L 309.431 87.3898L 314.713 83.2798L 319.3 78.7188L 323.102 73.8678L 326.032 68.8868L 328.553 62.0288L 329.293 55.4428L 328.258 49.3478L 325.452 43.9628L 322.873 41.1068L 319.774 38.7718L 314.327 35.9372L 307.407 34.9008L 302.273 34.6588L 239.781 43.2048L 228.509 42.8488L 218.676 41.2678L 209.492 38.5738L 129.997 7.03085L 122.376 5.24084L 109.57 5.28586L 99.8469 8.65384L 93.0149 13.5349L 88.3335 19.0743L 88.3335 19.0743z"/>
<path style="stroke:#000000; stroke-width:1.0; fill:none; font-family:Times; font-size:12.0" d="M 103.354 65.528L 100.484 59.0529L 98.7379 52.4239L 98.1072 45.0815L 98.7169 39.0241L 100.93 32.5712L 104.093 27.9159L 108.006 24.7269L 112.746 23.0459L 116.948 22.6045L 121.368 23.3549L 214.09 58.7589L 225.182 60.6438L 237.879 61.2078L 297.773 52.9158L 301.638 52.3128L 305.59 52.1488L 309.418 52.8002L 311.089 54.8058L 310.995 57.5322L 309.887 60.9248L 308.029 64.0438L 305.582 67.0948L 302.622 69.9738L 299.229 72.5758L 295.48 74.7968L 291.454 76.5308L 287.228 77.6748L 251.661 79.0118L 243.883 81.2348L 238.306 84.5768L 234.563 88.8198L 232.287 93.7458L 231.111 99.1378L 229.328 129.318L 226.395 140.401L 223.952 146.374L 220.154 153.537L 203.008 175.662L 199.474 181.647L 196.364 188.295L 193.885 195.654L 192.245 203.767L 191.652 212.682L 192.07 220.41L 193.396 228.701L 195.734 237.578L 200.266 250.025L 201.423 255.528L 201.363 261.068L 199.943 266.425L 197.495 270.96L 194.022 275.363L 188.666 279.423L 184.092 282.032L 177.626 284.506L 169.341 286.182L 164.649 286.215L 159.276 285.11L 154.661 282.43L 151.832 278.513L 151.317 272.884L 152.252 259.673L 154.663 242.918L 155.003 232.448L 154.484 223.436L 153.096 215.8L 150.831 209.458L 147.678 204.327L 143.629 200.325L 138.186 197.243L 132.208 195.784L 125.756 195.723L 118.891 196.836L 59.5289 220.345L 52.5019 222.387L 45.7389 223.215L 40.8129 222.275L 36.7242 220.189L 32.6779 216.404L 29.2392 210.446L 27.0149 204.139L 24.6469 194.677L 23.4549 184.456L 23.4149 173.985L 24.4999 163.772L 26.6849 154.325L 29.9439 146.154L 34.2519 139.767L 37.2275 136.863L 41.4239 135.379L 45.5489 135.393L 60.2889 140.724L 69.3069 143.049L 77.3679 144.057L 84.6019 143.98L 91.1409 143.049L 121.607 132.76L 126.608 132.011L 132.089 131.913L 138.211 132.612L 145.131 134.255L 157.577 138.73L 169.653 141.476L 176.366 141.823L 183.838 140.677L 190.792 138.065L 196.251 133.881L 200.584 127.736L 202.792 120.554L 202.95 113.012L 201.536 106.058L 198.958 100.641L 194.786 95.3128L 190.485 90.9118L 185.228 86.9348L 179 83.5488L 171.784 80.9228L 163.562 79.2228L 122.501 78.1458L 117.502 76.8418L 112.456 74.4808L 107.634 70.7703L 103.354 65.528L 103.354 65.528z"/>
<path style="stroke:#000000; stroke-width:1; fill:none" d="M 218.676 41.2678L 214.09 58.7589L 218.676 41.2678"/>
<path style="stroke:#000000; stroke-width:1; fill:none" d="M 147.166 23.7241L 143.036 22.108"/>
</g>
</svg>