<?xml version="1.0" encoding="ISO-8859-1" standalone="yes"?>
<svg width="330.482" height="90.4816">
  <defs> 
    <marker id="ArrowEnd" viewBox="0 0 10 10" refX="0" refY="5" 
     markerUnits="strokeWidth" 
     markerWidth="4" 
     markerHeight="3" 
     orient="auto"> 
        <path d="M 0 0 L 10 5 L 0 10 z" /> 
    </marker>
    <marker id="ArrowStart" viewBox="0 0 10 10" refX="10" refY="5" 
     markerUnits="strokeWidth" 
     markerWidth="4" 
     markerHeight="3" 
     orient="auto"> 
        <path d="M 10 0 L 0 5 L 10 10 z" /> 
    </marker> </defs>
<g>
<path style="stroke:#000000; stroke-width:1.0; fill:none; font-family:Times; font-size:12.0" d="M 325.241 5.24084L 300.062 5.24084L 267.202 5.24084L 236.497 5.24084L 206.331 5.24084L 174.01 5.24084L 141.151 5.24084L 130.916 5.24084L 119.065 5.24084L 87.8215 5.24084L 56.0393 5.24084L 25.8732 5.24084L 5.24084 5.24084L 5.24084 36.1092L 5.24084 61.9659L 5.24084 85.2408L 38.2628 85.2408L 72.7384 85.2408L 102.905 85.2408L 134.687 85.2408L 164.853 85.2408L 191.787 85.2408L 217.644 85.2408L 241.884 85.2408L 271.512 85.2408L 301.678 85.2408L 325.241 85.2408L 325.241 55.5017L 325.241 25.8743L 325.241 5.24084"/>
<path style="stroke:#000000; stroke-width:1.0; fill:none; font-family:Times; font-size:12.0" d="M 301.182 27.8235L 274.204 27.571L 242.959 27.2786L 209.563 26.966L 180.477 26.6938L 140.882 26.3232L 130.382 26.2249L 118.529 26.114L 89.9765 25.8467L 63.0397 25.5946L 40.4222 25.3829L 25.2408 25.2408L 25.2408 43.1121L 25.2408 65.2408L 54.9647 64.8874L 84.0557 64.5415L 114.218 64.1828L 141.693 63.8561L 170.778 63.5103L 202.029 63.1387L 241.893 62.6647L 275.28 62.2677L 304.503 61.9202L 302.724 43.6538L 301.182 27.8235"/>
<path style="stroke:#000000; stroke-width:1.0; fill:none; font-family:Times; font-size:12.0" d="M 130.916 5.24084L 130.382 26.2249"/>
<path style="stroke:#000000; stroke-width:1; fill:none" d="M 111.851 74.7911L 116.16 74.7911L 116.16 75.5991L 111.851 75.5991L 111.851 74.7911z"/>
<path style="stroke:#000000; stroke-width:1; fill:none" d="M 51.851 74.7911L 56.1604 74.7911L 56.1604 75.5991L 51.851 75.5991L 51.851 74.7911z"/>
<path style="stroke:#000000; stroke-width:1; fill:none" d="M 71.851 74.7911L 76.1604 74.7911L 76.1604 75.5991L 71.851 75.5991L 71.851 74.7911z"/>
<path style="stroke:#000000; stroke-width:1; fill:none" d="M 91.851 74.7911L 96.1604 74.7911L 96.1604 75.5991L 91.851 75.5991L 91.851 74.7911z"/>
<path style="stroke:#000000; stroke-width:1; fill:none" d="M 191.851 74.7911L 196.16 74.7911L 196.16 75.5991L 191.851 75.5991L 191.851 74.7911z"/>
<path style="stroke:#000000; stroke-width:1; fill:none" d="M 131.851 74.7911L 136.16 74.7911L 136.16 75.5991L 131.851 75.5991L 131.851 74.7911z"/>
<path style="stroke:#000000; stroke-width:1; fill:none" d="M 151.851 74.7911L 156.16 74.7911L 156.16 75.5991L 151.851 75.5991L 151.851 74.7911z"/>
<path style="stroke:#000000; stroke-width:1; fill:none" d="M 171.851 74.7911L 176.16 74.7911L 176.16 75.5991L 171.851 75.5991L 171.851 74.7911z"/>
<path style="stroke:#000000; stroke-width:1; fill:none" d="M 271.851 74.7911L 276.16 74.7911L 276.16 75.5991L 271.851 75.5991L 271.851 74.7911z"/>
<path style="stroke:#000000; stroke-width:1; fill:none" d="M 211.851 74.7911L 216.16 74.7911L 216.16 75.5991L 211.851 75.5991L 211.851 74.7911z"/>
<path style="stroke:#000000; stroke-width:1; fill:none" d="M 231.851 74.7911L 236.16 74.7911L 236.16 75.5991L 231.851 75.5991L 231.851 74.7911z"/>
<path style="stroke:#000000; stroke-width:1; fill:none" d="M 251.851 74.7911L 256.16 74.7911L 256.16 75.5991L 251.851 75.5991L 251.851 74.7911z"/>
<path style="stroke:#000000; stroke-width:1; fill:none" d="M 103.111 14.8313L 107.42 14.8313L 107.42 15.6393L 103.111 15.6393L 103.111 14.8313z"/>
<path style="stroke:#000000; stroke-width:1; fill:none" d="M 43.111 14.8313L 47.4204 14.8313L 47.4204 15.6393L 43.111 15.6393L 43.111 14.8313z"/>
<path style="stroke:#000000; stroke-width:1; fill:none" d="M 63.111 14.8313L 67.4204 14.8313L 67.4204 15.6393L 63.111 15.6393L 63.111 14.8313z"/>
<path style="stroke:#000000; stroke-width:1; fill:none" d="M 83.111 14.8313L 87.4204 14.8313L 87.4204 15.6393L 83.111 15.6393L 83.111 14.8313z"/>
<g>
<path style="stroke:#000000; stroke-width:1; fill:none" d="M 183.111 14.8313L 187.42 14.8313L 187.42 15.6393L 183.111 15.6393L 183.111 14.8313z"/>
<path style="stroke:#000000; stroke-width:1; fill:none" d="M 123.111 14.8313L 127.42 14.8313L 127.42 15.6393L 123.111 15.6393L 123.111 14.8313z"/>
<path style="stroke:#000000; stroke-width:1; fill:none" d="M 143.111 14.8313L 147.42 14.8313L 147.42 15.6393L 143.111 15.6393L 143.111 14.8313z"/>
<path style="stroke:#000000; stroke-width:1; fill:none" d="M 163.111 14.8313L 167.42 14.8313L 167.42 15.6393L 163.111 15.6393L 163.111 14.8313z"/>
</g>
<g>
<path style="stroke:#000000; stroke-width:1; fill:none" d="M 263.111 14.8313L 267.42 14.8313L 267.42 15.6393L 263.111 15.6393L 263.111 14.8313z"/>
<path style="stroke:#000000; stroke-width:1; fill:none" d="M 203.111 14.8313L 207.42 14.8313L 207.42 15.6393L 203.111 15.6393L 203.111 14.8313z"/>
<path style="stroke:#000000; stroke-width:1; fill:none" d="M 223.111 14.8313L 227.42 14.8313L 227.42 15.6393L 223.111 15.6393L 223.111 14.8313z"/>
<path style="stroke:#000000; stroke-width:1; fill:none" d="M 243.111 14.8313L 247.42 14.8313L 247.42 15.6393L 243.111 15.6393L 243.111 14.8313z"/>
</g>
<path style="stroke:#000000; stroke-width:1.0; fill:none; font-family:Times; font-size:12.0" d="M 277.971 10.6661L 280 10.4816"/>
</g>
</svg>