<?xml version="1.0" encoding="ISO-8859-1" standalone="yes"?>
<svg width="330.482" height="90.4816">
  <defs> 
    <marker id="ArrowEnd" viewBox="0 0 10 10" refX="0" refY="5" 
     markerUnits="strokeWidth" 
     markerWidth="4" 
     markerHeight="3" 
     orient="auto"> 
        <path d="M 0 0 L 10 5 L 0 10 z" /> 
    </marker>
    <marker id="ArrowStart" viewBox="0 0 10 10" refX="10" refY="5" 
     markerUnits="strokeWidth" 
     markerWidth="4" 
     markerHeight="3" 
     orient="auto"> 
        <path d="M 10 0 L 0 5 L 10 10 z" /> 
    </marker> </defs>
<g>
<path style="stroke:#000000; stroke-width:1.0; fill:none; font-family:Times; font-size:12.0" d="M 325.241 5.24084L 141.151 5.24084L 130.916 5.24084L 119.065 5.24084L 5.24084 5.24084L 5.24084 85.2408L 325.241 85.2408L 325.241 5.24084"/>
<path style="stroke:#000000; stroke-width:1.0; fill:none; font-family:Times; font-size:12.0" d="M 301.182 27.8235L 140.882 26.3232L 130.382 26.2249L 118.529 26.114L 25.2408 25.2408L 25.2408 65.2408L 304.503 61.9202L 301.182 27.8235"/>
<path style="stroke:#00ff00; stroke-width:1; fill:none" d="M 130.916 5.24084L 130.382 26.2249L 140.882 26.3232L 141.151 5.24084L 130.916 5.24084"/>
<path style="stroke:#ff0000; stroke-width:1; fill:none" d="M 130.382 26.2249L 118.529 26.114L 119.065 5.24084L 130.916 5.24084L 130.382 26.2249"/>
<path style="stroke:#000000; stroke-width:1.0; fill:none; font-family:Times; font-size:12.0" d="M 277.971 10.6661L 280 10.4816"/>
</g>
</svg>