<?xml version="1.0" encoding="ISO-8859-1" standalone="yes"?>
<svg width="530.482" height="650.482">
  <defs> 
    <marker id="ArrowEnd" viewBox="0 0 10 10" refX="0" refY="5" 
     markerUnits="strokeWidth" 
     markerWidth="4" 
     markerHeight="3" 
     orient="auto"> 
        <path d="M 0 0 L 10 5 L 0 10 z" /> 
    </marker>
    <marker id="ArrowStart" viewBox="0 0 10 10" refX="10" refY="5" 
     markerUnits="strokeWidth" 
     markerWidth="4" 
     markerHeight="3" 
     orient="auto"> 
        <path d="M 10 0 L 0 5 L 10 10 z" /> 
    </marker> </defs>
<g>
<path style="stroke:#000000; stroke-width:1.0; fill:none; font-family:Times; font-size:12.0" d="M 65.2408 5.24084L 5.24084 5.24084L 5.24084 145.241L 65.2408 225.241L 105.241 225.241L 125.376 201.47L 145.241 225.241L 185.241 225.241L 205.376 201.47L 225.241 225.241L 265.241 225.241L 285.376 201.47L 305.241 225.241L 345.241 225.241L 365.376 201.47L 385.241 225.241L 425.241 225.241L 445.376 201.47L 465.241 225.241L 465.241 245.241L 445.241 268.204L 425.241 245.241L 385.241 245.241L 365.241 268.204L 345.241 245.241L 305.241 245.241L 285.241 268.204L 265.241 245.241L 225.241 245.241L 205.241 268.204L 185.241 245.241L 145.241 245.241L 125.241 268.204L 105.241 245.241L 5.24084 245.241L 5.24084 345.241L 105.241 345.241L 125.376 321.47L 145.241 345.241L 185.241 345.241L 205.376 321.47L 225.241 345.241L 265.241 345.241L 285.376 321.47L 305.241 345.241L 345.241 345.241L 365.376 321.47L 385.241 345.241L 425.241 345.241L 445.376 321.47L 465.241 345.241L 465.241 365.241L 445.241 388.204L 425.241 365.241L 385.241 365.241L 365.241 388.204L 345.241 365.241L 305.241 365.241L 285.241 388.204L 265.241 365.241L 225.241 365.241L 205.241 388.204L 185.241 365.241L 145.241 365.241L 125.241 388.204L 105.241 365.241L 5.24084 365.241L 5.24084 465.241L 105.241 465.241L 125.376 441.47L 145.241 465.241L 185.241 465.241L 205.376 441.47L 225.241 465.241L 265.241 465.241L 285.376 441.47L 305.241 465.241L 345.241 465.241L 365.376 441.47L 385.241 465.241L 425.241 465.241L 445.376 441.47L 465.241 465.241L 465.241 645.241L 525.241 645.241L 525.241 485.241L 465.241 425.241L 425.241 425.241L 405.241 448.204L 385.241 425.241L 345.241 425.241L 325.241 448.204L 305.241 425.241L 265.241 425.241L 245.241 448.204L 225.241 425.241L 185.241 425.241L 165.241 448.204L 145.241 425.241L 105.241 425.241L 85.2408 448.204L 65.2408 425.241L 65.2408 405.241L 85.3755 381.47L 105.241 405.241L 145.241 405.241L 165.376 381.47L 185.241 405.241L 225.241 405.241L 245.376 381.47L 265.241 405.241L 305.241 405.241L 325.376 381.47L 345.241 405.241L 385.241 405.241L 405.376 381.47L 425.241 405.241L 525.241 405.241L 525.241 305.241L 425.241 305.241L 405.241 328.204L 385.241 305.241L 345.241 305.241L 325.241 328.204L 305.241 305.241L 265.241 305.241L 245.241 328.204L 225.241 305.241L 185.241 305.241L 165.241 328.204L 145.241 305.241L 105.241 305.241L 85.2408 328.204L 65.2408 305.241L 65.2408 285.241L 85.3755 261.47L 105.241 285.241L 145.241 285.241L 165.376 261.47L 185.241 285.241L 225.241 285.241L 245.376 261.47L 265.241 285.241L 305.241 285.241L 325.376 261.47L 345.241 285.241L 385.241 285.241L 405.376 261.47L 425.241 285.241L 525.241 285.241L 525.241 185.241L 425.241 185.241L 405.241 208.204L 385.241 185.241L 345.241 185.241L 325.241 208.204L 305.241 185.241L 265.241 185.241L 245.241 208.204L 225.241 185.241L 185.241 185.241L 165.241 208.204L 145.241 185.241L 105.241 185.241L 85.2408 208.204L 65.2408 185.241L 65.2408 5.24084"/>
<path style="stroke:#0000ff; stroke-width:1.0; fill:none; font-family:Times; font-size:12.0" d="M 496.294 620.04L 465.241 645.241L 525.241 645.241L 496.294 620.04"/>
<path style="stroke:#00ffff; stroke-width:1.0; fill:none; font-family:Times; font-size:12.0" d="M 65.2408 5.24084L 5.24084 5.24084L 35.4164 29.664L 65.2408 5.24084"/>
<path style="stroke:#000000; stroke-width:1.0; fill:none; font-family:Times; font-size:12.0" d="M 496.33 511.38L 496.464 506.801"/>
</g>
</svg>