<?xml version="1.0" encoding="ISO-8859-1" standalone="yes"?>
<svg width="408.241" height="407.851">
  <defs> 
    <marker id="ArrowEnd" viewBox="0 0 10 10" refX="0" refY="5" 
     markerUnits="strokeWidth" 
     markerWidth="4" 
     markerHeight="3" 
     orient="auto"> 
        <path d="M 0 0 L 10 5 L 0 10 z" /> 
    </marker>
    <marker id="ArrowStart" viewBox="0 0 10 10" refX="10" refY="5" 
     markerUnits="strokeWidth" 
     markerWidth="4" 
     markerHeight="3" 
     orient="auto"> 
        <path d="M 10 0 L 0 5 L 10 10 z" /> 
    </marker> </defs>
<g>
<path style="stroke:#000000; stroke-width:1.0; fill:none; font-family:Times; font-size:12.0" d="M 196.4 8.64383L 188.297 13.3888L 183.8 17.3638L 179.422 22.6398L 175.474 29.3898L 172.268 37.7888L 170.116 48.0118L 169.329 60.2318L 173.636 93.9788L 172.061 96.0578L 169.464 96.8348L 114.991 101.551L 99.1868 105.092L 84.2538 111.293L 76.5518 116.276L 69.8668 122.184L 64.2018 129.012L 59.5598 136.752L 55.9438 145.398L 51.8028 165.382L 53.7428 213.581L 59.1408 236.558L 63.7698 246.766L 70.0348 255.338L 78.1968 261.687L 82.8758 263.781L 93.0218 265.58L 104.186 264.199L 116.329 259.644L 122.755 256.177L 126.2 253.182L 128.264 249.092L 128.941 243.922L 127.829 235.918L 116.138 192.853L 116.397 185.387L 118.725 179.95L 122.563 175.556L 130.42 170.067L 144.201 166.906L 148.98 166.601L 152.871 167.208L 155.17 169.567L 156.42 172.317L 157.198 185.839L 151.142 231.213L 137.887 275.851L 128.689 296.445L 125.02 302.356L 122.715 305.002L 74.8798 268.246L 61.3238 261.201L 47.9978 256.43L 35.3368 254.643L 26.5028 255.233L 18.6478 259.093L 13.0598 263.873L 8.19584 271.572L 6.40584 276.729L 5.24084 282.871L 5.57084 288.35L 10.6838 300.571L 36.4408 332.448L 76.9048 367.151L 103.193 382.25L 120.555 387.783L 128.393 388.64L 135.659 388.222L 142.347 386.529L 148.449 383.559L 167.434 370.173L 181.363 357.51L 206.648 325.948L 214.67 319.518L 226.104 316.388L 243.862 316.533L 263.212 319.151L 278.955 323.37L 291.586 328.922L 301.599 335.54L 309.489 342.957L 337.801 387.122L 343.371 392.765L 350.078 397.427L 358.175 400.809L 367.916 402.61L 379.556 402.527L 387.715 400.86L 395.504 396.407L 400.172 391.566L 402.354 384.944L 403 378.777L 402.348 371.69L 400.47 363.894L 357.929 282.224L 350.624 274.463L 341.881 267.864L 331.59 262.378L 305.926 254.548L 255.475 248.007L 251.287 246.676L 245.263 243.608L 242.673 241.066L 242.113 237.045L 243.057 233.579L 245.485 228.766L 253.048 218.066L 255.423 215.691L 258.423 215.316L 273.439 224.25L 288.018 229.462L 297.396 230.977L 321.245 230.206L 362.678 219.59L 381.334 211.034L 389.383 205.391L 395.887 198.69L 401.499 186.982L 402.204 179.108L 400.726 170.99L 397.07 162.657L 391.882 154.998L 386.529 149.564L 380.788 145.986L 374.62 144.239L 368.636 144.22L 358.092 147.343L 336.509 157.514L 325.707 160.488L 312.913 161.339L 295.392 158.461L 276.703 150.459L 261.5 139.224L 255.661 132.976L 248.006 120.565L 247.173 115.398L 249.173 110.731L 257.87 101.175L 264.515 91.5459L 269.263 81.6949L 272.097 71.7328L 272.994 61.7698L 271.934 51.9158L 268.897 42.2818L 263.861 32.9778L 257.507 24.9778L 250.012 18.1978L 241.651 12.7348L 232.696 8.68884L 223.42 6.1579L 214.097 5.24084L 205 6.03586L 196.4 8.64383L 196.4 8.64383L 196.4 8.64383L 196.4 8.64383L 196.4 8.64383L 196.4 8.64383z"/>
<path style="stroke:#000000; stroke-width:1.0; fill:none; font-family:Times; font-size:12.0" d="M 87.8118 244.149L 82.9498 239.759L 79.1778 233.018L 74.3258 215.171L 71.5608 168.815L 72.9318 158.791L 75.2588 150.544L 78.3328 143.87L 81.9438 138.564L 89.9368 131.24L 99.6968 126.078L 105.901 123.941L 119.165 121.128L 172.579 116.606L 182.399 113.226L 189.661 107.163L 192.837 99.7329L 192.48 88.9029L 189.504 73.2329L 189.352 56.2509L 192.257 40.5869L 195.257 34.6739L 199.273 30.1299L 204.291 27.0219L 215.152 25.2409L 227.001 27.9109L 238.22 34.3909L 247.196 44.0389L 252.415 56.4689L 252.154 69.4959L 246.486 82.8009L 233.839 98.2319L 229.143 105.827L 227.583 113.61L 228.219 122.101L 233.096 135.055L 238.721 143.656L 246.079 152.039L 265.295 166.985L 276.804 172.963L 289.348 177.554L 302.753 180.466L 321.207 181.146L 336.624 178.448L 343.271 176.306L 367.027 165.244L 371.615 164.078L 373.252 164.479L 376.205 167.289L 381.021 175.288L 382.147 179.381L 381.631 183.704L 378.569 188.311L 366.819 196.19L 351.372 202.254L 319.427 210.267L 300.761 211.197L 293.531 210.173L 287.437 208.459L 282.282 206.281L 266.886 197.32L 262.881 195.754L 258.568 194.936L 253.947 195.179L 249.015 196.797L 243.769 200.103L 233.233 211.408L 226.003 222.846L 223.752 228.278L 222.412 233.511L 221.839 240.734L 223.88 247.979L 227.186 253.72L 231.739 258.433L 237.295 262.214L 243.61 265.161L 257.545 268.941L 310.934 276.263L 320.801 279.585L 329.195 283.677L 336.207 288.575L 341.925 294.316L 377.422 359.142L 383.174 375.316L 382.424 380.316L 375.924 383.816L 370.174 383.566L 360.212 380.251L 356.205 377.565L 352.724 373.965L 331.994 339.161L 324.487 329.604L 314.931 320.478L 302.791 312.199L 287.527 305.182L 268.603 299.843L 232.312 296.1L 221.407 296.889L 212.399 298.882L 204.92 301.995L 198.6 306.146L 193.071 311.252L 166.922 343.67L 146.842 361.398L 137.896 366.572L 129.925 369.065L 120.498 367.236L 103.144 359.944L 75.1388 340.818L 36.1708 302.027L 25.8558 286.506L 25.6698 280.899L 29.0028 276.566L 34.5468 274.677L 40.0948 275.187L 47.3268 277.163L 66.9158 286.755L 111.17 321.567L 119.17 324.567L 126.467 325.113L 131.272 323.311L 135.641 320.266L 139.641 316.109L 143.339 310.973L 150.097 298.292L 169.448 240.939L 176.552 199.805L 176.544 171.441L 174.044 163.066L 170.095 156.213L 166.21 151.948L 162.121 149.209L 156.379 147.243L 149.17 146.585L 140.792 147.132L 131.797 148.974L 122.739 152.2L 114.172 156.901L 106.648 163.166L 100.72 171.084L 96.9418 180.746L 95.9818 189.583L 97.6038 203.635L 108.532 241.177L 103.181 243.559L 92.4768 245.493L 87.8118 244.149L 87.8118 244.149L 87.8118 244.149L 87.8118 244.149L 87.8118 244.149L 87.8118 244.149z"/>
<path style="stroke:#00ff00; stroke-width:1.0; fill:none; font-family:Times; font-size:12.0" d="M 357.929 282.224L 341.925 294.316"/>
<path style="stroke:#000000; stroke-width:1.0; fill:none; font-family:Times; font-size:12.0" d="M 377.523 339.041L 380.485 343.889"/>
</g>
</svg>